# xmcd
#
# Track frame offsets:
#	150
#	20125
#	43718
#	66990
#	90872
#	115073
#	138745
#	163287
#	188197
#	212729
#	234761
#	254735
#
# Disc length: 3704 seconds
#
# Revision: 1
# Processed by: cddbd v1.5.2PL0 Copyright (c) Steve Scherf et al.
# Submitted via: EZCDAudioConverter 8.0.2.1
#
DISCID=ad0e760c
DTITLE=Various Artist - Rau Đắng Tình Xa, Chuyện Tình Bên Ao Cá
DYEAR=2007
DGENRE=World Pop
TTITLE0=Phi Nhung, Tường Nguyên - Rau Đắng Tình Xa
TTITLE1=Mỹ Huyền - Kẻ yêu thầm 2
TTITLE2=Tường Nguyên - Chuyện Tình Bên Ao Cá
TTITLE3=Hạ Vy - Lk Mưa
TTITLE4=Trường Vũ, hạ Vy - Giàu nghèo
TTITLE5=Phi Nhung - Sầu tím thiệp hồng
TTITLE6=Trường Vũ - Đời còn cô đơn
TTITLE7=Phi Nhung - Con cò
TTITLE8=Trường Vũ - Trái tim cô đơn
TTITLE9=Hạ Vy - Gởi người yêu xưa
TTITLE10=Soundtrack - Rau Đắng Tình Xa
TTITLE11=Soundtrack - Chuyện Tình Bên Ao Cá
EXTD=
EXTT0=
EXTT1=
EXTT2=
EXTT3=
EXTT4=
EXTT5=
EXTT6=
EXTT7=
EXTT8=
EXTT9=
EXTT10=
EXTT11=
PLAYORDER=
